<?xml version="1.0" encoding="utf-8"?>
<!-- Generator: Adobe Illustrator 16.0.0, SVG Export Plug-In . SVG Version: 6.00 Build 0)  -->
<!DOCTYPE svg PUBLIC "-//W3C//DTD SVG 1.1//EN" "http://www.w3.org/Graphics/SVG/1.1/DTD/svg11.dtd">
<svg version="1.1" id="Layer_1" xmlns="http://www.w3.org/2000/svg" xmlns:xlink="http://www.w3.org/1999/xlink" x="0px" y="0px"
	 width="16px" height="16px" viewBox="0 0 16 16" enable-background="new 0 0 16 16" xml:space="preserve">
<path fill="#231F20" d="M8,1C4.13,1,1,4.13,1,8s3.13,7,7,7s7-3.13,7-7S11.87,1,8,1z M3,8c0-2.76,2.24-5,5-5
	c1.02,0,1.97,0.31,2.76,0.83l-6.93,6.93C3.31,9.97,3,9.02,3,8z M8,13c-1.02,0-1.97-0.31-2.76-0.83l6.93-6.93
	C12.69,6.03,13,6.98,13,8C13,10.76,10.76,13,8,13z"/>
</svg>
